HIERARCHY
ROOT Pelvis
{
	OFFSET 0.000000 0.941512 0.000000
	CHANNELS 6 Xposition Yposition Zposition Zrotation Yrotation Xrotation 
	JOINT Pelvis_L_Hip
	{
		OFFSET 0.000000 0.000000 0.000000
		CHANNELS 3 Zrotation Yrotation Xrotation
		JOINT L_Hip
		{
			OFFSET 0.062321 -0.080322 -0.016990
			CHANNELS 3 Zrotation Yrotation Xrotation
			JOINT L_Knee
			{
				OFFSET 0.093051 -0.381305 -0.029784
				CHANNELS 3 Zrotation Yrotation Xrotation
				JOINT L_Ankle
				{
					OFFSET -0.010371 -0.431000 -0.033614
					CHANNELS 3 Zrotation Yrotation Xrotation
					End Site #name: L_Foot
					{
						OFFSET 0.069299 -0.038670 0.119418
					}
				}
			}
		}
	}
	JOINT Pelvis_R_Hip
	{
		OFFSET 0.000000 0.000000 0.000000
		CHANNELS 3 Zrotation Yrotation Xrotation
		JOINT R_Hip
		{
			OFFSET -0.055334 -0.094904 -0.002373
			CHANNELS 3 Zrotation Yrotation Xrotation
			JOINT R_Knee
			{
				OFFSET -0.064207 -0.384370 -0.019592
				CHANNELS 3 Zrotation Yrotation Xrotation
				JOINT R_Ankle
				{
					OFFSET 0.025418 -0.419734 -0.065953
					CHANNELS 3 Zrotation Yrotation Xrotation
					End Site #name: R_Foot
					{
						OFFSET -0.057233 -0.039888 0.132134
					}
				}
			}
		}
	}
	JOINT Pelvis_Spine1
	{
		OFFSET 0.000000 0.000000 0.000000
		CHANNELS 3 Zrotation Yrotation Xrotation
		JOINT Spine1
		{
			OFFSET -0.005562 0.124093 -0.043360
			CHANNELS 3 Zrotation Yrotation Xrotation
			JOINT Spine2
			{
				OFFSET 0.012244 0.139499 0.029894
				CHANNELS 3 Zrotation Yrotation Xrotation
				JOINT Spine3
				{
					OFFSET -0.002556 0.056561 0.009225
					CHANNELS 3 Zrotation Yrotation Xrotation
					JOINT Spine3_Neck
					{
						OFFSET 0.000000 0.000000 0.000000
						CHANNELS 3 Zrotation Yrotation Xrotation
						JOINT Neck
						{
							OFFSET -0.005205 0.217920 -0.024551
							CHANNELS 3 Zrotation Yrotation Xrotation
							End Site #name: Head
							{
								OFFSET 0.002365 0.091850 0.046637
							}
						}
					}
					JOINT Spine3_L_Collar
					{
						OFFSET 0.000000 0.000000 0.000000
						CHANNELS 3 Zrotation Yrotation Xrotation
						JOINT L_Collar
						{
							OFFSET 0.072225 0.116603 -0.009480
							CHANNELS 3 Zrotation Yrotation Xrotation
							JOINT L_Shoulder
							{
								OFFSET 0.115937 -0.058643 -0.021018
								CHANNELS 3 Zrotation Yrotation Xrotation
								JOINT L_Elbow
								{
									OFFSET 0.021994 -0.254722 -0.024492
									CHANNELS 3 Zrotation Yrotation Xrotation
									End Site #name: L_Wrist
									{
										OFFSET 0.048810 -0.240214 0.103329
									}
								}
							}
						}
					}
					JOINT Spine3_R_Collar
					{
						OFFSET 0.000000 0.000000 0.000000
						CHANNELS 3 Zrotation Yrotation Xrotation
						JOINT R_Collar
						{
							OFFSET -0.073372 0.120704 -0.024611
							CHANNELS 3 Zrotation Yrotation Xrotation
							JOINT R_Shoulder
							{
								OFFSET -0.108089 -0.054969 -0.020504
								CHANNELS 3 Zrotation Yrotation Xrotation
								JOINT R_Elbow
								{
									OFFSET -0.033684 -0.260739 0.009889
									CHANNELS 3 Zrotation Yrotation Xrotation
									End Site #name: R_Wrist
									{
										OFFSET -0.067980 -0.232763 0.118463
									}
								}
							}
						}
					}
				}
			}
		}
	}
}
MOTION
Frames: 7
Frame Time: 0.041667
0.000000 0.968297 0.000000 -2.768506 -2.810096 2.171441 0.000000 0.000000 0.000000 -8.402798 -2.538991 -10.113771 6.619655 -1.541217 12.563752 -5.120744 -9.205985 3.619626 0.000000 0.000000 0.000000 7.498645 1.725794 -9.128913 -4.317105 1.538831 8.342776 5.221898 8.901490 5.006931 0.000000 0.000000 0.000000 6.572833 -0.718743 -5.021769 -8.527090 5.407029 29.254833 3.520443 2.360317 -28.343107 0.000000 0.000000 0.000000 1.333488 -0.852529 6.139027 0.000000 0.000000 0.000000 23.739156 -7.026198 -1.007842 -11.846544 1.476479 4.305070 -11.099328 -4.952643 -0.125656 0.000000 0.000000 0.000000 -20.591681 6.156024 -0.368232 14.360220 -1.454882 10.039035 8.161362 2.090390 5.582853 
0.003637 0.967540 0.002986 -2.682008 -2.373489 2.546009 0.000000 0.000000 0.000000 -8.982681 -2.899224 -11.239615 7.015126 -1.765605 14.309306 -4.617979 -9.581938 2.628451 0.000000 0.000000 0.000000 7.499783 2.045020 -10.489999 -4.997414 1.978606 10.830952 4.573611 8.595973 3.977652 0.000000 0.000000 0.000000 6.725053 -0.768160 -4.886641 -8.621276 5.399610 29.115597 3.566538 2.442676 -27.990124 0.000000 0.000000 0.000000 1.363421 -0.793005 4.192877 0.000000 0.000000 0.000000 23.792037 -6.648534 -0.643018 -12.019590 1.475272 4.186494 -11.381670 -5.797704 -2.220859 0.000000 0.000000 0.000000 -20.557217 5.449282 0.127058 14.455338 -1.461041 10.021917 8.272969 3.194993 2.841226 
0.008569 0.963049 0.003030 -2.220312 -1.912753 2.946203 0.000000 0.000000 0.000000 -9.756121 -3.841199 -14.071369 6.543053 -2.060395 19.147923 -2.717785 -8.868945 -0.045551 0.000000 0.000000 0.000000 7.275822 3.305962 -15.867553 -5.531811 3.331037 20.720222 3.034455 7.151409 1.854404 0.000000 0.000000 0.000000 6.163585 -0.845611 -3.668416 -8.425652 5.163022 28.325480 3.763230 2.661813 -27.711326 0.000000 0.000000 0.000000 1.510080 -0.779706 2.135727 0.000000 0.000000 0.000000 24.530717 -6.756145 -0.548865 -13.151849 1.499681 3.795305 -11.771057 -7.087658 -5.340757 0.000000 0.000000 0.000000 -21.681766 5.379518 0.336126 15.415413 -1.642424 10.647935 8.545846 5.205013 -1.821373 
0.015001 0.949638 -0.000641 -0.646499 -1.493645 2.508511 0.000000 0.000000 0.000000 -11.197446 -5.329340 -18.129909 4.529912 -2.112049 27.834455 0.512734 -6.997320 -4.422724 0.000000 0.000000 0.000000 4.334779 4.743790 -23.849582 -2.302825 3.770943 36.483079 1.587236 4.041237 0.813311 0.000000 0.000000 0.000000 4.843677 -0.948003 -0.932466 -8.153224 4.929792 27.724069 3.500652 2.289841 -27.425110 0.000000 0.000000 0.000000 1.873813 -0.838801 -0.201224 0.000000 0.000000 0.000000 25.717821 -8.113244 -1.499333 -14.138933 1.689311 4.256830 -12.374496 -9.406002 -10.683090 0.000000 0.000000 0.000000 -23.219540 6.015276 0.119633 16.178421 -1.916037 11.584321 8.981025 8.992588 -9.951115 
0.020042 0.926562 -0.005354 0.483107 -1.074070 0.689272 0.000000 0.000000 0.000000 -11.901540 -6.387461 -20.741502 2.002797 -1.632358 35.989188 3.190001 -4.518580 -7.798059 0.000000 0.000000 0.000000 0.635177 5.384031 -30.694952 2.572018 2.047734 50.956561 2.831116 2.076502 4.818190 0.000000 0.000000 0.000000 4.103711 -1.349120 3.691158 -7.774572 4.660393 27.167291 3.429571 1.691474 -26.995309 0.000000 0.000000 0.000000 2.157218 -0.791765 -3.671810 0.000000 0.000000 0.000000 26.393851 -9.876507 -2.954225 -14.156361 1.826074 4.837734 -12.972643 -12.317539 -16.978831 0.000000 0.000000 0.000000 -24.055103 6.531578 -0.104133 15.121445 -1.933896 11.693163 9.100968 13.865863 -19.768206 
0.022031 0.911136 -0.004456 1.044042 -0.827414 -0.796343 0.000000 0.000000 0.000000 -11.670423 -6.303001 -20.412819 0.021190 -0.878353 37.898447 3.804564 -4.250077 -8.723096 0.000000 0.000000 0.000000 -1.941172 5.510850 -35.185590 6.249479 -0.369894 59.479235 4.421890 0.060872 9.828810 0.000000 0.000000 0.000000 3.954674 -1.665959 6.649820 -7.486947 4.557688 27.442885 3.327136 1.145127 -27.379108 0.000000 0.000000 0.000000 2.625218 -0.970315 -3.935784 0.000000 0.000000 0.000000 26.830109 -10.307920 -3.332410 -14.131505 1.650246 4.075778 -14.284271 -14.541867 -19.976827 0.000000 0.000000 0.000000 -24.848920 5.937587 0.584386 14.989065 -1.327123 9.454297 9.498909 17.043169 -24.999914 
0.018599 0.914723 0.001411 0.701921 -0.938183 -0.925322 0.000000 0.000000 0.000000 -10.558462 -5.963539 -19.806080 -1.038066 -0.406946 37.562964 3.600302 -3.886013 -8.211486 0.000000 0.000000 0.000000 -2.493154 5.641788 -36.876891 8.569716 -2.243933 61.885481 2.443942 -4.332729 9.183747 0.000000 0.000000 0.000000 4.452556 -1.822245 6.807249 -7.248645 4.409977 27.066041 3.347604 0.988221 -26.958275 0.000000 0.000000 0.000000 3.028744 -1.126834 -4.169471 0.000000 0.000000 0.000000 26.599464 -10.227712 -3.322518 -13.313579 1.588510 4.081682 -16.202897 -16.348640 -20.835831 0.000000 0.000000 0.000000 -24.362228 5.483145 0.892484 14.675925 -1.151801 8.756104 9.470589 18.952271 -28.354737 
